<mxfile host="app.diagrams.net" agent="Mozilla/5.0 (Windows NT 10.0; Win64; x64) AppleWebKit/537.36 (KHTML, like Gecko) Chrome/131.0.0.0 Safari/537.36" version="25.0.3">
  <diagram name="페이지-1" id="ADy0dJqcoXJl75VDZ6XW">
    <mxGraphModel dx="946" dy="557" grid="1" gridSize="10" guides="1" tooltips="1" connect="1" arrows="1" fold="1" page="1" pageScale="1" pageWidth="827" pageHeight="1169" math="0" shadow="0">
      <root>
        <mxCell id="0" />
        <mxCell id="1" parent="0" />
        <mxCell id="EZd2-sCSqK_4vxLXn1L7-1" value="" style="group;movable=1;resizable=1;rotatable=1;deletable=1;editable=1;locked=0;connectable=1;" vertex="1" connectable="0" parent="1">
          <mxGeometry x="370" y="410" width="420" height="230" as="geometry" />
        </mxCell>
        <mxCell id="EZd2-sCSqK_4vxLXn1L7-2" value="&amp;nbsp; &amp;nbsp; &amp;nbsp;Lightsail VPC" style="sketch=0;outlineConnect=0;gradientColor=none;html=1;whiteSpace=wrap;fontSize=12;fontStyle=0;shape=mxgraph.aws4.group;grIcon=mxgraph.aws4.group_vpc;strokeColor=#879196;fillColor=none;verticalAlign=top;align=left;spacingLeft=30;fontColor=#879196;dashed=0;movable=0;resizable=0;rotatable=0;deletable=0;editable=0;locked=1;connectable=0;" vertex="1" parent="EZd2-sCSqK_4vxLXn1L7-1">
          <mxGeometry width="420" height="230" as="geometry" />
        </mxCell>
        <mxCell id="EZd2-sCSqK_4vxLXn1L7-3" value="" style="sketch=0;points=[[0,0,0],[0.25,0,0],[0.5,0,0],[0.75,0,0],[1,0,0],[0,1,0],[0.25,1,0],[0.5,1,0],[0.75,1,0],[1,1,0],[0,0.25,0],[0,0.5,0],[0,0.75,0],[1,0.25,0],[1,0.5,0],[1,0.75,0]];outlineConnect=0;fontColor=#232F3E;fillColor=#ED7100;strokeColor=#ffffff;dashed=0;verticalLabelPosition=bottom;verticalAlign=top;align=center;html=1;fontSize=12;fontStyle=0;aspect=fixed;shape=mxgraph.aws4.resourceIcon;resIcon=mxgraph.aws4.lightsail;" vertex="1" parent="EZd2-sCSqK_4vxLXn1L7-1">
          <mxGeometry width="40" height="40" as="geometry" />
        </mxCell>
        <mxCell id="EZd2-sCSqK_4vxLXn1L7-4" value="/dev/api:80" style="sketch=0;outlineConnect=0;fontColor=#232F3E;gradientColor=none;fillColor=#8C4FFF;strokeColor=none;dashed=0;verticalLabelPosition=bottom;verticalAlign=top;align=center;html=1;fontSize=12;fontStyle=0;aspect=fixed;pointerEvents=1;shape=mxgraph.aws4.internet_gateway;" vertex="1" parent="EZd2-sCSqK_4vxLXn1L7-1">
          <mxGeometry x="-30" y="130" width="50" height="50" as="geometry" />
        </mxCell>
        <mxCell id="EZd2-sCSqK_4vxLXn1L7-5" value="NginX" style="verticalLabelPosition=bottom;sketch=0;aspect=fixed;html=1;verticalAlign=top;strokeColor=none;align=center;outlineConnect=0;shape=mxgraph.citrix.web_server;" vertex="1" parent="EZd2-sCSqK_4vxLXn1L7-1">
          <mxGeometry x="90" y="122.5" width="55.25" height="65" as="geometry" />
        </mxCell>
        <mxCell id="EZd2-sCSqK_4vxLXn1L7-6" style="edgeStyle=orthogonalEdgeStyle;rounded=0;orthogonalLoop=1;jettySize=auto;html=1;" edge="1" parent="EZd2-sCSqK_4vxLXn1L7-1" source="EZd2-sCSqK_4vxLXn1L7-5" target="EZd2-sCSqK_4vxLXn1L7-4">
          <mxGeometry relative="1" as="geometry" />
        </mxCell>
        <mxCell id="EZd2-sCSqK_4vxLXn1L7-7" value="" style="group" vertex="1" connectable="0" parent="EZd2-sCSqK_4vxLXn1L7-1">
          <mxGeometry x="220" y="90" width="190" height="130" as="geometry" />
        </mxCell>
        <mxCell id="EZd2-sCSqK_4vxLXn1L7-8" value="&amp;nbsp; &amp;nbsp; &amp;nbsp;.NET Runtime" style="sketch=0;outlineConnect=0;gradientColor=none;html=1;whiteSpace=wrap;fontSize=12;fontStyle=0;shape=mxgraph.aws4.group;grIcon=mxgraph.aws4.group_vpc;strokeColor=#B6BABF;fillColor=none;verticalAlign=top;align=left;spacingLeft=30;fontColor=#B6BABF;dashed=0;" vertex="1" parent="EZd2-sCSqK_4vxLXn1L7-7">
          <mxGeometry x="10" width="180" height="130" as="geometry" />
        </mxCell>
        <mxCell id="EZd2-sCSqK_4vxLXn1L7-9" value=".Net Web API Application" style="outlineConnect=0;dashed=0;verticalLabelPosition=bottom;verticalAlign=top;align=center;html=1;shape=mxgraph.aws3.android;fillColor=#115193;gradientColor=none;" vertex="1" parent="EZd2-sCSqK_4vxLXn1L7-7">
          <mxGeometry x="84" y="45" width="40" height="40" as="geometry" />
        </mxCell>
        <mxCell id="EZd2-sCSqK_4vxLXn1L7-10" value=":5000" style="fontStyle=0;labelPosition=right;verticalLabelPosition=middle;align=left;verticalAlign=middle;spacingLeft=2;" vertex="1" parent="EZd2-sCSqK_4vxLXn1L7-7">
          <mxGeometry y="50" width="30" height="30" as="geometry" />
        </mxCell>
        <mxCell id="EZd2-sCSqK_4vxLXn1L7-11" value="" style="outlineConnect=0;dashed=0;verticalLabelPosition=bottom;verticalAlign=top;align=center;html=1;shape=mxgraph.aws3.mysql_db_instance;fillColor=#2E73B8;gradientColor=none;" vertex="1" parent="EZd2-sCSqK_4vxLXn1L7-1">
          <mxGeometry x="350" y="10" width="60" height="64.5" as="geometry" />
        </mxCell>
        <mxCell id="EZd2-sCSqK_4vxLXn1L7-12" style="edgeStyle=orthogonalEdgeStyle;rounded=0;orthogonalLoop=1;jettySize=auto;html=1;" edge="1" parent="EZd2-sCSqK_4vxLXn1L7-1" source="EZd2-sCSqK_4vxLXn1L7-9" target="EZd2-sCSqK_4vxLXn1L7-11">
          <mxGeometry relative="1" as="geometry" />
        </mxCell>
        <mxCell id="EZd2-sCSqK_4vxLXn1L7-13" style="edgeStyle=orthogonalEdgeStyle;rounded=0;orthogonalLoop=1;jettySize=auto;html=1;" edge="1" parent="EZd2-sCSqK_4vxLXn1L7-1" source="EZd2-sCSqK_4vxLXn1L7-10" target="EZd2-sCSqK_4vxLXn1L7-5">
          <mxGeometry relative="1" as="geometry" />
        </mxCell>
        <mxCell id="EZd2-sCSqK_4vxLXn1L7-14" style="edgeStyle=orthogonalEdgeStyle;rounded=0;orthogonalLoop=1;jettySize=auto;html=1;" edge="1" parent="EZd2-sCSqK_4vxLXn1L7-1" source="EZd2-sCSqK_4vxLXn1L7-15" target="EZd2-sCSqK_4vxLXn1L7-9">
          <mxGeometry relative="1" as="geometry" />
        </mxCell>
        <mxCell id="EZd2-sCSqK_4vxLXn1L7-15" value="SSH Port 22" style="sketch=0;outlineConnect=0;fontColor=#232F3E;gradientColor=none;fillColor=#8C4FFF;strokeColor=none;dashed=0;verticalLabelPosition=bottom;verticalAlign=top;align=center;html=1;fontSize=12;fontStyle=0;aspect=fixed;pointerEvents=1;shape=mxgraph.aws4.internet_gateway;" vertex="1" parent="EZd2-sCSqK_4vxLXn1L7-1">
          <mxGeometry x="-20" y="50" width="50" height="50" as="geometry" />
        </mxCell>
        <mxCell id="EZd2-sCSqK_4vxLXn1L7-16" value="" style="image;html=1;image=img/lib/clip_art/computers/Netbook_128x128.png" vertex="1" parent="1">
          <mxGeometry x="60" y="580" width="65" height="67" as="geometry" />
        </mxCell>
        <mxCell id="EZd2-sCSqK_4vxLXn1L7-17" style="edgeStyle=orthogonalEdgeStyle;rounded=0;orthogonalLoop=1;jettySize=auto;html=1;entryX=0;entryY=0.75;entryDx=0;entryDy=0;exitX=0.5;exitY=0;exitDx=0;exitDy=0;exitPerimeter=0;" edge="1" parent="1" source="EZd2-sCSqK_4vxLXn1L7-23" target="EZd2-sCSqK_4vxLXn1L7-29">
          <mxGeometry relative="1" as="geometry" />
        </mxCell>
        <mxCell id="EZd2-sCSqK_4vxLXn1L7-18" style="edgeStyle=orthogonalEdgeStyle;rounded=0;orthogonalLoop=1;jettySize=auto;html=1;" edge="1" parent="1" source="EZd2-sCSqK_4vxLXn1L7-19" target="EZd2-sCSqK_4vxLXn1L7-16">
          <mxGeometry relative="1" as="geometry" />
        </mxCell>
        <mxCell id="EZd2-sCSqK_4vxLXn1L7-19" value="internet" style="outlineConnect=0;dashed=0;verticalLabelPosition=bottom;verticalAlign=top;align=center;html=1;shape=mxgraph.aws3.internet_3;fillColor=#D2D3D3;gradientColor=none;" vertex="1" parent="1">
          <mxGeometry x="220" y="580" width="80" height="50" as="geometry" />
        </mxCell>
        <mxCell id="EZd2-sCSqK_4vxLXn1L7-20" style="edgeStyle=orthogonalEdgeStyle;rounded=0;orthogonalLoop=1;jettySize=auto;html=1;" edge="1" parent="1" source="EZd2-sCSqK_4vxLXn1L7-4" target="EZd2-sCSqK_4vxLXn1L7-19">
          <mxGeometry relative="1" as="geometry" />
        </mxCell>
        <mxCell id="EZd2-sCSqK_4vxLXn1L7-21" value="Local Dev Env" style="points=[[0,0],[0.25,0],[0.5,0],[0.75,0],[1,0],[1,0.25],[1,0.5],[1,0.75],[1,1],[0.75,1],[0.5,1],[0.25,1],[0,1],[0,0.75],[0,0.5],[0,0.25]];outlineConnect=0;gradientColor=none;html=1;whiteSpace=wrap;fontSize=12;fontStyle=0;container=1;pointerEvents=0;collapsible=0;recursiveResize=0;shape=mxgraph.aws4.group;grIcon=mxgraph.aws4.group_region;strokeColor=#00A4A6;fillColor=none;verticalAlign=top;align=left;spacingLeft=30;fontColor=#147EBA;dashed=1;" vertex="1" parent="1">
          <mxGeometry y="510" width="180" height="130" as="geometry" />
        </mxCell>
        <mxCell id="EZd2-sCSqK_4vxLXn1L7-22" value="" style="sketch=0;aspect=fixed;pointerEvents=1;shadow=0;dashed=0;html=1;strokeColor=none;labelPosition=center;verticalLabelPosition=bottom;verticalAlign=top;align=center;fillColor=#00188D;shape=mxgraph.mscae.enterprise.code_file" vertex="1" parent="EZd2-sCSqK_4vxLXn1L7-21">
          <mxGeometry x="64.67" y="26.25" width="41.65" height="42.5" as="geometry" />
        </mxCell>
        <mxCell id="EZd2-sCSqK_4vxLXn1L7-23" value="" style="verticalLabelPosition=bottom;html=1;verticalAlign=top;align=center;strokeColor=none;fillColor=#00BEF2;shape=mxgraph.azure.git_repository;" vertex="1" parent="EZd2-sCSqK_4vxLXn1L7-21">
          <mxGeometry x="110" y="35" width="40" height="33.75" as="geometry" />
        </mxCell>
        <mxCell id="EZd2-sCSqK_4vxLXn1L7-24" value="" style="edgeStyle=orthogonalEdgeStyle;rounded=0;orthogonalLoop=1;jettySize=auto;html=1;entryX=0;entryY=0.5;entryDx=0;entryDy=0;entryPerimeter=0;exitX=1;exitY=0.75;exitDx=0;exitDy=0;" edge="1" parent="1" source="EZd2-sCSqK_4vxLXn1L7-29" target="EZd2-sCSqK_4vxLXn1L7-25">
          <mxGeometry relative="1" as="geometry">
            <mxPoint x="180" y="430" as="sourcePoint" />
            <mxPoint x="370" y="430" as="targetPoint" />
          </mxGeometry>
        </mxCell>
        <mxCell id="EZd2-sCSqK_4vxLXn1L7-25" value="CD&lt;br&gt;Action" style="html=1;dashed=0;rounded=1;absoluteArcSize=1;arcSize=20;verticalAlign=middle;align=center;whiteSpace=wrap;" vertex="1" parent="1">
          <mxGeometry x="210" y="468.75" width="100" height="41.25" as="geometry" />
        </mxCell>
        <mxCell id="EZd2-sCSqK_4vxLXn1L7-26" value="*" style="text;resizeWidth=0;resizeHeight=0;points=[];part=1;verticalAlign=middle;align=center;html=1;" vertex="1" parent="EZd2-sCSqK_4vxLXn1L7-25">
          <mxGeometry x="1" y="0.5" width="20" height="20" relative="1" as="geometry">
            <mxPoint x="-20" y="-10" as="offset" />
          </mxGeometry>
        </mxCell>
        <mxCell id="EZd2-sCSqK_4vxLXn1L7-27" style="edgeStyle=orthogonalEdgeStyle;rounded=0;orthogonalLoop=1;jettySize=auto;html=1;entryX=1;entryY=0.5;entryDx=0;entryDy=0;entryPerimeter=0;exitX=0.5;exitY=1;exitDx=0;exitDy=0;" edge="1" parent="1" source="EZd2-sCSqK_4vxLXn1L7-29" target="EZd2-sCSqK_4vxLXn1L7-23">
          <mxGeometry relative="1" as="geometry" />
        </mxCell>
        <mxCell id="EZd2-sCSqK_4vxLXn1L7-28" style="edgeStyle=orthogonalEdgeStyle;rounded=0;orthogonalLoop=1;jettySize=auto;html=1;" edge="1" parent="1" source="EZd2-sCSqK_4vxLXn1L7-26" target="EZd2-sCSqK_4vxLXn1L7-15">
          <mxGeometry relative="1" as="geometry" />
        </mxCell>
        <mxCell id="EZd2-sCSqK_4vxLXn1L7-29" value="" style="shape=image;html=1;verticalAlign=top;verticalLabelPosition=bottom;labelBackgroundColor=#ffffff;imageAspect=0;aspect=fixed;image=https://cdn1.iconfinder.com/data/icons/picons-social/57/github-128.png" vertex="1" parent="1">
          <mxGeometry x="116" y="380" width="64" height="64" as="geometry" />
        </mxCell>
      </root>
    </mxGraphModel>
  </diagram>
</mxfile>
